<?xml version="1.0" encoding="utf-8"?>
<!-- Generator: Adobe Illustrator 16.0.0, SVG Export Plug-In . SVG Version: 6.00 Build 0)  -->
<!DOCTYPE svg PUBLIC "-//W3C//DTD SVG 1.1//EN" "http://www.w3.org/Graphics/SVG/1.1/DTD/svg11.dtd">
<svg version="1.1" id="Layer_1" xmlns="http://www.w3.org/2000/svg" xmlns:xlink="http://www.w3.org/1999/xlink" x="0px" y="0px"
	 width="42px" height="42px" viewBox="-6 -6 42 42" enable-background="new 0 0 42 42" xml:space="preserve">
<g>
	<g>
		<path d="M15.364,16.05c-1.563,0-3.125-0.592-4.318-1.778c-1.16-1.154-1.802-2.69-1.807-4.326S9.866,6.77,11.02,5.611
			c0.194-0.196,0.511-0.197,0.707-0.002s0.197,0.512,0.002,0.707c-0.965,0.97-1.495,2.258-1.49,3.627
			c0.004,1.368,0.541,2.654,1.512,3.62c2.004,1.994,5.255,1.982,7.247-0.02c0.965-0.97,1.495-2.259,1.491-3.628
			s-0.541-2.654-1.511-3.619c-0.196-0.195-0.197-0.511-0.002-0.707c0.193-0.196,0.511-0.197,0.707-0.002
			c1.159,1.153,1.801,2.689,1.806,4.326c0.004,1.636-0.628,3.176-1.782,4.335C18.512,15.449,16.938,16.05,15.364,16.05z"/>
		<path d="M12.381,8.779c-0.223,0-0.427-0.15-0.485-0.377l-0.645-2.545L8.707,6.503C8.44,6.571,8.167,6.409,8.099,6.142
			c-0.068-0.268,0.094-0.54,0.362-0.607l3.029-0.769c0.128-0.033,0.265-0.013,0.379,0.055C11.983,4.889,12.065,5,12.098,5.128
			l0.768,3.029c0.068,0.268-0.094,0.54-0.362,0.607C12.463,8.774,12.422,8.779,12.381,8.779z"/>
	</g>
	<path d="M25.75,29H4.25C1.907,29,0,27.094,0,24.75v-1.5C0,20.906,1.907,19,4.25,19h21.5c2.343,0,4.25,1.906,4.25,4.25v1.5
		C30,27.094,28.093,29,25.75,29z M4.25,20C2.458,20,1,21.458,1,23.25v1.5C1,26.542,2.458,28,4.25,28h21.5
		c1.792,0,3.25-1.458,3.25-3.25v-1.5c0-1.792-1.458-3.25-3.25-3.25H4.25z"/>
	<path d="M24.426,25.125c-0.965,0-1.75-0.785-1.75-1.75s0.785-1.75,1.75-1.75s1.75,0.785,1.75,1.75S25.391,25.125,24.426,25.125z
		 M24.426,22.625c-0.414,0-0.75,0.336-0.75,0.75s0.336,0.75,0.75,0.75s0.75-0.336,0.75-0.75S24.84,22.625,24.426,22.625z"/>
	<path d="M0.881,22.111c-0.021,0-0.042,0-0.063-0.004c-0.273-0.035-0.467-0.285-0.432-0.56L2.504,5.063C2.817,2.745,4.814,1,7.15,1
		h15.17c2.342,0,4.339,1.75,4.646,4.071l2.071,15.638c0.036,0.273-0.156,0.525-0.43,0.563c-0.274,0.035-0.525-0.158-0.562-0.431
		L25.975,5.202C25.733,3.376,24.162,2,22.32,2H7.15C5.313,2,3.741,3.373,3.496,5.193L1.377,21.676
		C1.344,21.928,1.129,22.111,0.881,22.111z"/>
</g>
</svg>
